PathFileType	4	(X/Y/Z)	C:/Users/opensim2020/Desktop/walking_exp_matlab/subject06_walking12_straigt_02.trc																																																																																																																																														
DataRate	CameraRate	NumFrames	NumMarkers	Units	OrigDataRate	OrigDataStartFrame	OrigNumFrames																																																																																																																																										
100	100	5	48	mm	100	1628	215																																																																																																																																										
Frame#	Time	LFHD			RFHD			LBHD			RBHD			C7			T10			CLAV			STRN			RBAK			LSHO			LUPA			LELB			LFRM			LWRA			LWRB			LFIN			RSHO			RUPA			RELB			RFRM			RWRA			RWRB			RFIN			LASI			RASI			LPSI			RPSI			LTHI			LKNE			LTIB			LANK			LHEE			LTOE			RTHI			RKNE			RTIB			RANK			RHEE			RTOE			*39			*40			*41			*42			*43			*44			*45			*46			*47		
		X1	Y1	Z1	X2	Y2	Z2	X3	Y3	Z3	X4	Y4	Z4	X5	Y5	Z5	X6	Y6	Z6	X7	Y7	Z7	X8	Y8	Z8	X9	Y9	Z9	X10	Y10	Z10	X11	Y11	Z11	X12	Y12	Z12	X13	Y13	Z13	X14	Y14	Z14	X15	Y15	Z15	X16	Y16	Z16	X17	Y17	Z17	X18	Y18	Z18	X19	Y19	Z19	X20	Y20	Z20	X21	Y21	Z21	X22	Y22	Z22	X23	Y23	Z23	X24	Y24	Z24	X25	Y25	Z25	X26	Y26	Z26	X27	Y27	Z27	X28	Y28	Z28	X29	Y29	Z29	X30	Y30	Z30	X31	Y31	Z31	X32	Y32	Z32	X33	Y33	Z33	X34	Y34	Z34	X35	Y35	Z35	X36	Y36	Z36	X37	Y37	Z37	X38	Y38	Z38	X39	Y39	Z39	X40	Y40	Z40	X41	Y41	Z41	X42	Y42	Z42	X43	Y43	Z43	X44	Y44	Z44	X45	Y45	Z45	X46	Y46	Z46	X47	Y47	Z47	X48	Y48	Z48
																																																																																																																																																	
189	1.88	767.29694	1658.33215	-1489.39893	755.50464	1639.80103	-1358.62952	634.20056	1605.26538	-1505.32568	623.67438	1592.28076	-1377.32397	628.09778	1439.776	-1451.9469	606.4552	1109.26599	-1442.89905	741.22668	1367.03723	-1449.02332	788.62018	1192.20569	-1462.09741	560.97888	1263.61548	-1381.94946	684.04047	1401.00818	-1610.90259	726.12817	1206.24451	-1687.17188	759.98193	1099.57971	-1702.03918	882.39874	1018.3772	-1711.55566	1003.38959	1005.41119	-1655.76904	978.73608	950.59833	-1691.80103	1068.10962	944.73291	-1686.97815	688.92371	1392.95178	-1288.12158	623.00214	1196.90173	-1214.10181	614.24243	1075.10681	-1207.72803	600.51764	955.20258	-1192.1897	628.64075	804.41345	-1216.71118	571.42981	820.21973	-1184.92126	585.38531	736.30365	-1180.37891	771.64563	947.63562	-1563.79968	792.64569	955.33398	-1342.21045	616.84869	979.2182	-1517.86243	638.94647	979.64301	-1350.47266	652.06494	642.31848	-1607.69214	614.4834	481.18018	-1584.13293	466.32761	266.45068	-1570.13586	384.46512	115.0216	-1520.24426	341.66452	119.52943	-1475.7334	508.28989	39.08487	-1514.42725	796.86768	627.74561	-1279.71924	840.88458	513.71179	-1313.81506	873.27063	251.72092	-1331.36182	924.17084	78.50186	-1384.73059	898.68011	60.1605	-1434.42029	1088.72021	36.76918	-1376.01648	662.30341	1694.1604	-1437.25964	NaN	NaN	NaN	NaN	NaN	NaN	NaN	NaN	NaN	NaN	NaN	NaN	NaN	NaN	NaN	NaN	NaN	NaN	NaN	NaN	NaN	NaN	NaN	NaN
190	1.89	778.13318	1658.3927	-1487.90503	766.26825	1639.67053	-1357.18323	645.034	1605.33081	-1503.95972	634.487	1592.19971	-1375.9502	638.96649	1439.65576	-1450.44971	618.32928	1108.83093	-1441.86609	752.17407	1367.07471	-1447.83777	799.92383	1192.35791	-1461.11926	572.0567	1263.0188	-1380.60571	694.84711	1400.90613	-1609.7478	735.70319	1205.54297	-1685.84314	768.68842	1098.65881	-1700.64417	890.8006	1016.91327	-1710.47632	1011.73462	1003.66406	-1654.7135	986.74384	948.79584	-1690.67346	1076.12476	942.66516	-1685.8855	699.99365	1392.60205	-1286.80566	635.01917	1196.16833	-1212.7948	626.47992	1074.40454	-1206.51331	613.09381	954.53125	-1190.95715	641.20892	803.6358	-1215.69641	584.26642	819.45831	-1183.75012	598.44214	735.63629	-1179.10132	783.83069	947.4137	-1562.94934	804.97815	955.78052	-1341.22705	629.19055	978.62134	-1517.07556	651.26581	979.77832	-1349.81531	664.78271	641.63751	-1607.07153	628.21942	480.23831	-1583.57129	474.76163	269.25085	-1570.33252	388.55417	120.18517	-1521.44238	345.95102	126.25615	-1477.12085	509.06372	39.07952	-1514.42834	810.52698	629.073	-1280.65198	854.6955	515.78711	-1315.96936	880.72876	251.42041	-1331.91455	924.42706	76.37024	-1385.97717	898.03131	56.81473	-1434.92249	1089.08948	36.50276	-1377.68494	673.07074	1694.13574	-1435.77588	NaN	NaN	NaN	NaN	NaN	NaN	NaN	NaN	NaN	NaN	NaN	NaN	NaN	NaN	NaN	NaN	NaN	NaN	NaN	NaN	NaN	NaN	NaN	NaN
191	1.9	788.92957	1658.67285	-1486.4021	777.15015	1639.80457	-1355.67603	655.88794	1605.66174	-1502.5553	645.24243	1592.39734	-1374.61597	649.65747	1439.80896	-1449.2356	629.86316	1108.69482	-1441.1499	762.98364	1367.40076	-1446.64685	811.14832	1192.82898	-1460.09534	583.25275	1262.68994	-1379.18127	705.56427	1401.0553	-1608.64868	745.08478	1205.08984	-1684.49597	777.0943	1097.91455	-1699.2605	898.57471	1015.28204	-1709.12012	1019.8844	1001.37616	-1653.65137	993.85974	946.37903	-1689.78259	1083.45215	939.68774	-1684.90601	711.14197	1392.55249	-1285.46863	647.04865	1195.71741	-1211.4989	639.05615	1073.9342	-1205.26807	625.89996	953.93726	-1189.755	654.24554	803.09344	-1214.6145	597.44305	818.85626	-1182.40442	611.7619	735.17261	-1177.86682	796.16345	947.5528	-1561.97046	817.55768	956.76251	-1340.125	641.46979	978.47028	-1516.44678	663.11353	980.55774	-1349.12085	677.86597	641.11011	-1606.41113	642.3446	479.43933	-1583.3855	483.80997	272.5141	-1570.5094	393.31021	125.98909	-1522.60925	351.2211	133.69402	-1478.4137	509.90552	39.06668	-1514.33813	824.31897	630.14032	-1282.25	867.51117	516.78192	-1317.37292	888.16565	251.14957	-1331.20691	924.83826	74.49963	-1386.14795	897.61407	53.72749	-1434.76416	1089.55981	36.58677	-1378.31287	683.94604	1694.37683	-1434.26294	NaN	NaN	NaN	NaN	NaN	NaN	NaN	NaN	NaN	NaN	NaN	NaN	NaN	NaN	NaN	NaN	NaN	NaN	NaN	NaN	NaN	NaN	NaN	NaN
192	1.91	799.823	1658.9696	-1484.80835	787.8775	1639.98206	-1354.29382	666.6629	1606.27551	-1501.16235	656.02197	1592.90393	-1373.1825	660.76514	1440.21912	-1447.53174	641.68231	1108.76428	-1440.005	773.82465	1367.90161	-1445.4342	822.36414	1193.55457	-1459.08838	594.21802	1262.7583	-1377.99646	716.4574	1401.38525	-1607.43799	754.28662	1204.86487	-1683.03125	785.39398	1097.42468	-1697.7312	906.08258	1013.40552	-1707.86328	1027.65955	998.47516	-1652.67639	1000.48383	943.39337	-1688.66077	1090.16345	935.88184	-1684.04028	722.0434	1392.76282	-1284.20984	659.09637	1195.47607	-1210.29407	651.67334	1073.67468	-1204.0636	639.06567	953.67993	-1188.55347	667.97821	803.01166	-1213.4209	611.01971	818.44165	-1181.16309	625.77692	734.79749	-1176.53174	808.36169	947.9411	-1560.78516	829.90356	957.96478	-1339.11023	653.61255	978.50323	-1516.10071	675.54724	981.14429	-1348.88696	691.46271	640.70227	-1605.83301	657.3858	478.74991	-1583.36865	493.608	276.27258	-1570.69775	399.28299	132.29279	-1523.54956	357.69446	141.82414	-1479.36548	510.91028	39.01439	-1514.17639	838.45569	631.7276	-1282.69275	879.23303	516.83118	-1317.69397	894.18451	251.05902	-1330.27161	925.61298	72.65201	-1385.58984	897.30127	50.86356	-1433.93604	1089.99561	36.61445	-1378.79041	694.94855	1694.85815	-1432.78711	NaN	NaN	NaN	NaN	NaN	NaN	NaN	NaN	NaN	NaN	NaN	NaN	NaN	NaN	NaN	NaN	NaN	NaN	NaN	NaN	NaN	NaN	NaN	NaN
193	1.92	810.67139	1659.49402	-1483.271	798.37823	1640.2417	-1352.77612	677.46326	1607.02197	-1499.7572	666.57275	1593.55688	-1371.89844	671.17493	1440.63684	-1446.42419	652.92023	1109.19812	-1439.04504	784.48199	1368.57349	-1444.25781	833.59546	1194.34045	-1458.09949	605.39642	1262.89514	-1376.59888	727.03186	1401.9762	-1606.28088	763.33099	1204.90906	-1681.60535	793.49701	1097.17078	-1696.15918	912.86786	1011.43616	-1706.19507	1034.52893	994.64813	-1651.77637	1006.4436	939.95282	-1687.63416	1096.01624	931.12573	-1683.27795	732.90692	1393.16418	-1282.98608	671.16443	1195.4845	-1209.15234	664.4397	1073.68921	-1202.91077	652.47119	953.64233	-1187.29932	681.94458	802.98108	-1212.30969	625.19415	818.31146	-1179.81995	640.11365	734.71039	-1175.26648	820.46143	948.60645	-1559.50134	842.13867	959.336	-1338.31836	665.83679	978.70837	-1515.58154	687.75427	982.09698	-1348.58997	705.50964	640.45264	-1605.50439	673.42261	478.03702	-1584.00879	504.28174	280.39301	-1570.92419	405.83591	139.18474	-1524.40588	365.5452	150.5072	-1479.7699	512.08582	39.04998	-1513.99939	851.78204	632.59094	-1282.45874	890.13971	516.78394	-1317.38892	899.08527	250.55775	-1329.37146	926.31641	70.59599	-1384.91492	897.00232	47.86921	-1433.12061	1090.07715	36.73341	-1379.15051	705.82208	1695.5033	-1431.27283	NaN	NaN	NaN	NaN	NaN	NaN	NaN	NaN	NaN	NaN	NaN	NaN	NaN	NaN	NaN	NaN	NaN	NaN	NaN	NaN	NaN	NaN	NaN	NaN
